# xmcd
#
# Track frame offsets: 
#        150
#        21727
#        46500
#        61100
#        77900
#        96880
#        114110
#        126620
#        146547
#        164242
#        189145
#        208912
#        226712
#
# Disc length: 3180 seconds
#
# Revision: 9
# Processed by: cddbd v1.5.2PL0 Copyright (c) Steve Scherf et al.
# Submitted via: ExactAudioCopy v1.5
#
DISCID=b00c6a0d
DTITLE=Daniel Bélanger - Quatre saisons dans le désordre
DYEAR=1996
DGENRE=Folklore
TTITLE0=Quatre saisons dans le désordre
TTITLE1=Sortez-moi de moi
TTITLE2=Les deux printemps
TTITLE3=Monsieur verbêtre
TTITLE4=Respirer dans l'eau
TTITLE5=Cruel (Il fait froid, on gèle)
TTITLE6=La voie lactée
TTITLE7=Les temps fous
TTITLE8=Imparfait
TTITLE9=Le parapluie
TTITLE10=Je fais de moi un homme
TTITLE11=Projection dans le bleu
TTITLE12=Primate électrique
EXTD=Title correction for track #5:\nwas: "Respirez dans l'eau"\ncorre
EXTD=cted to: "Respirer dans l'eau"
EXTT0=
EXTT1=
EXTT2=
EXTT3=
EXTT4=
EXTT5=
EXTT6=
EXTT7=
EXTT8=
EXTT9=
EXTT10=
EXTT11=
EXTT12=
PLAYORDER=
